# xmcd
#
# Track frame offsets:
#   150
#   25934
#   41019
#   56097
#   91527
#   123450
#   144852
#
# Disc length: 2410 seconds
#
# Revision: 0
# Processed by: cddbd v1.5.2PL0 Copyright (c) Steve Scherf et al.
# Submitted via: uFREEDB ActiveX Control 1.5
#
DISCID=53096807
DTITLE=B.B. King - L.A. Midnight
DYEAR=1900
DGENRE=Blues
TTITLE0=I Got Some Help I Don't Need
TTITLE1=Help The Poor
TTITLE2=Can't You Hear Me Talking To You
TTITLE3=Midnight
TTITLE4=Sweet Sixteen
TTITLE5=I've Been Blue Too Long
TTITLE6=Lucille's Granny
EXTD=
EXTT0=
EXTT1=
EXTT2=
EXTT3=
EXTT4=
EXTT5=
EXTT6=
PLAYORDER=
